<svg xmlns="http://www.w3.org/2000/svg" viewBox="0 0 24 24"><path d="M12,1.006h0A10.994,10.994,0,1,0,22.994,12,11.006,11.006,0,0,0,12,1.006Zm9.936,10.479H18.511a12.552,12.552,0,0,0-4.495-9.243A9.974,9.974,0,0,1,21.937,11.485ZM12.515,2.448a11.322,11.322,0,0,1,4.949,9.037H16.75a2.773,2.773,0,0,0-.023-1.238A3.063,3.063,0,0,0,15,8.2a2.531,2.531,0,0,0-2.487.254ZM7.25,11.485H6.536a11.322,11.322,0,0,1,4.949-9.037v6.01A2.528,2.528,0,0,0,9,8.2a3.063,3.063,0,0,0-1.725,2.043A2.773,2.773,0,0,0,7.25,11.485ZM9.984,2.242a12.552,12.552,0,0,0-4.495,9.243H2.063A9.974,9.974,0,0,1,9.984,2.242ZM2.063,12.515H5.489a12.554,12.554,0,0,0,4.5,9.243A9.974,9.974,0,0,1,2.063,12.515Zm9.422,9.037a11.322,11.322,0,0,1-4.949-9.037H7.717c.008.01.012.022.019.032a50.353,50.353,0,0,0,3.749,3.646ZM8.553,11.918a1.661,1.661,0,0,1-.279-1.424A2.039,2.039,0,0,1,9.428,9.14a1.32,1.32,0,0,1,.557-.123A2.468,2.468,0,0,1,11.6,9.9c0,.006.013.009.018.014a.5.5,0,0,0,.76,0c0-.006.012-.008.017-.014.044-.051,1.073-1.267,2.175-.76a2.039,2.039,0,0,1,1.154,1.354,1.664,1.664,0,0,1-.278,1.424A47.019,47.019,0,0,1,12,15.27,46.779,46.779,0,0,1,8.553,11.918Zm3.962,4.275a50.353,50.353,0,0,0,3.749-3.646c.007-.01.011-.022.019-.032h1.181a11.322,11.322,0,0,1-4.949,9.037Zm1.5,5.565a12.554,12.554,0,0,0,4.495-9.243h3.426A9.974,9.974,0,0,1,14.016,21.758Z"/></svg>